# xmcd
# 
# Track frame offsets:
#     182
#     15447
#     33365
# 
# Disc length: 722
# 
# Revision: 9
# Processed by: cddbd v1.5.2PL0 Copyright (c) Steve Scherf et al.
# Submitted via: fre:ac v1.0.17
# 
DISCID=1502d003
DTITLE=Chris de Burg - Blonde Hair Blue Jeans
DYEAR=1994
DGENRE=Rock
TTITLE0=Blonde Hair Blue Jeans
TTITLE1=You Are The Reason
TTITLE2=Strangers On A Train
EXTD=
EXTT0=
EXTT1=
EXTT2=
PLAYORDER=
